<svg width="100" height="100" viewBox="0 0 100 100" fill="none" xmlns="http://www.w3.org/2000/svg">
    <path d="M50 18.33A31.67 31.67 0 1 0 81.67 50 31.713 31.713 0 0 0 50 18.33zm18.761 46.43h-5.335V45.997a4.82 4.82 0 0 0-.43-2.065 5.465 5.465 0 0 0-2.884-2.883 5.421 5.421 0 0 0-4.303 0 4.519 4.519 0 0 0-1.678 1.162 5.769 5.769 0 0 0-1.162 1.721 5.507 5.507 0 0 0-.387 2.065V64.76h-5.25V46a4.819 4.819 0 0 0-.43-2.066 5.464 5.464 0 0 0-2.883-2.883 5.421 5.421 0 0 0-4.302 0 4.518 4.518 0 0 0-1.679 1.162 5.767 5.767 0 0 0-1.161 1.721 5.51 5.51 0 0 0-.388 2.065V64.76h-5.25V35.8l2.669 2.97.99-.861a12.304 12.304 0 0 1 3.313-1.98 10.671 10.671 0 0 1 7.573 0 7.66 7.66 0 0 1 3.14 2.453l1.077 1.42 1.075-1.463a6.193 6.193 0 0 1 1.377-1.42 9.894 9.894 0 0 1 1.721-.99 9.174 9.174 0 0 1 1.85-.559 11.145 11.145 0 0 1 6.197.689 10.97 10.97 0 0 1 3.4 2.28 11.058 11.058 0 0 1 3.14 7.616V64.76z" fill="#fff"/>
    <path d="M50 5.809a44.191 44.191 0 1 0 44.191 44.19A44.277 44.277 0 0 0 50 5.81zm0 81.755A37.522 37.522 0 1 1 87.52 50.043 37.48 37.48 0 0 1 50 87.52v.043z" fill="#fff"/>
    <path d="M65.876 38.383c-.98-.967-2.391-1.74-3.657-2.28a11.144 11.144 0 0 0-6.197-.69 9.161 9.161 0 0 0-1.85.56 9.894 9.894 0 0 0-1.721.99 6.199 6.199 0 0 0-1.377 1.42l-1.076 1.463-1.075-1.42a7.659 7.659 0 0 0-3.142-2.453 10.671 10.671 0 0 0-7.573 0 12.306 12.306 0 0 0-3.313 1.98l-.99.86-2.667-2.97v28.96h5.378V45.999a5.507 5.507 0 0 1 .388-2.066c.28-.639.673-1.222 1.161-1.72a4.519 4.519 0 0 1 1.678-1.163 5.422 5.422 0 0 1 4.303 0 5.465 5.465 0 0 1 2.883 2.883c.295.649.441 1.354.43 2.066v18.76h5.38V46a5.507 5.507 0 0 1 .386-2.066c.28-.639.674-1.222 1.162-1.72a4.519 4.519 0 0 1 1.678-1.163 5.422 5.422 0 0 1 4.303 0 5.465 5.465 0 0 1 2.883 2.883c.295.649.442 1.354.43 2.066v18.76h5.336V46a11.058 11.058 0 0 0-3.14-7.616z" fill="#2C2C2C"/>
    <path d="M50 12.478A37.521 37.521 0 1 0 87.52 50a37.479 37.479 0 0 0-37.522-37.522zm0 69.191A31.67 31.67 0 1 1 81.668 50a31.712 31.712 0 0 1-31.67 31.67z" fill="#00A2D0"/>
    <path d="M50 0a50 50 0 1 0 0 100A50 50 0 0 0 50 0zm0 94.191A44.191 44.191 0 1 1 94.191 50 44.277 44.277 0 0 1 50 94.191z" fill="#FF006C"/>
</svg>
